/* XPM */
static const char * LED_grise_xpm[] = {
"11 11 75 1",
" 	c None",
".	c #6F54E1",
"+	c #3500FE",
"@	c #633FE8",
"#	c #8169D8",
"$	c #9793CC",
"%	c #3021F6",
"&	c #281DFE",
"*	c #2817FE",
"=	c #2003FA",
"-	c #1B00E9",
";	c #2A15CC",
">	c #847EBB",
",	c #A9ABC4",
"'	c #0C1DFD",
")	c #6F97FE",
"!	c #A3D0FE",
"~	c #5373FE",
"{	c #0E13E9",
"]	c #0004C9",
"^	c #0004B4",
"/	c #00039E",
"(	c #6A83C9",
"_	c #2259F5",
":	c #93CFFE",
"<	c #B5E3FE",
"[	c #5389F6",
"}	c #0D38C4",
"|	c #0027A7",
"1	c #002396",
"2	c #001C87",
"3	c #54669F",
"4	c #3F7AB6",
"5	c #146ACB",
"6	c #4096E7",
"7	c #52A4E9",
"8	c #2271C1",
"9	c #054B9A",
"0	c #003F87",
"a	c #003877",
"b	c #003673",
"c	c #295484",
"d	c #2992AC",
"e	c #0289AB",
"f	c #0A8EAF",
"g	c #0B89A8",
"h	c #057696",
"i	c #006C87",
"j	c #00637B",
"k	c #005C73",
"l	c #3E7D8D",
"m	c #55B6B5",
"n	c #00B4A9",
"o	c #00AFA5",
"p	c #00A69C",
"q	c #009C96",
"r	c #008E85",
"s	c #008783",
"t	c #549F9A",
"u	c #93BAB2",
"v	c #15B491",
"w	c #00B186",
"x	c #00A77E",
"y	c #009C75",
"z	c #009973",
"A	c #AAB9B6",
"B	c #7FB8A5",
"C	c #14B174",
"D	c #00AC69",
"E	c #93B8AB",
"F	c #55BC8A",
"G	c #3EBD80",
"H	c #2ABD73",
"I	c #69BC94",
"J	c #93BCA9",
"   .+@#    ",
" $%&*=-;>  ",
",')!~{]^/  ",
"(_:<[}|123 ",
"4567890abc ",
"defghijkkl ",
"mnopqrssst ",
"uvwxyzzzzA ",
" BCDDDDDE  ",
"   FGHIJ   ",
"           "};
