/* XPM */
const char * LED_verte_xpm[] = {
"10 10 6 1",
" 	c None",
".	c #330000",
"+	c #003202",
"@	c #00B504",
"#	c #50FC54",
"$	c #FFFFFF",
"  .++++.  ",
" ++@@@@@+ ",
".+#$@@@@@.",
"+@$#@@@@@+",
"+@@@@@@@@+",
"+@@@@@@#@+",
"+@@@@@##@+",
".+@@@##@+ ",
" +@@@@@++ ",
"  .++++.  "};
