/* XPM */
static const char * LED_rouge_xpm[] = {
"11 11 9 1",
" 	c None",
".	c #210000",
"+	c #310000",
"@	c #E66565",
"#	c #FFFFFF",
"$	c #B60000",
"%	c #533939",
"&	c #6B3333",
"*	c #757575",
"           ",
"   .++++.  ",
"  ++++++++ ",
" .+@#++++$.",
" ++#@+++$$+",
" +++++++$$+",
" ++++++$@$+",
" +++++$@@$+",
" %++$$@@$+ ",
"  +$$$$$+& ",
"   .++++*  "};
