/* XPM */
static char * LeftExpandRedArrow_xpm[] = {
"16 16 40 1",
" 	c None",
".	c #383737",
"+	c #636262",
"@	c #4C4B4B",
"#	c #474646",
"$	c #9B9898",
"%	c #7C7B7B",
"&	c #343333",
"*	c #B2B2B2",
"=	c #ADACAC",
"-	c #888787",
";	c #CB451C",
">	c #C5C2C3",
",	c #BBBBBB",
"'	c #B0A5A1",
")	c #F46025",
"!	c #FC4700",
"~	c #BEB2AF",
"{	c #EC632D",
"]	c #A9A9A9",
"^	c #F9062E",
"/	c #FC0011",
"(	c #F54B08",
"_	c #727171",
":	c #8B8B8B",
"<	c #CD5A6A",
"[	c #FC016B",
"}	c #FA033D",
"|	c #5A5959",
"1	c #C26143",
"2	c #FA0159",
"3	c #FD169E",
"4	c #722D21",
"5	c #141414",
"6	c #452A22",
"7	c #FC1100",
"8	c #38190D",
"9	c #E64D11",
"0	c #CE3B01",
"a	c #B02D13",
"                ",
"          .+@   ",
"         #$%&   ",
"        @*=-;   ",
"       @>,')!   ",
"      #*,~{!!   ",
"     #$]'^/(!   ",
"     _:<[[}/!   ",
"     |12332/(   ",
"     #4}[[}/!   ",
"      56^^/7!   ",
"       58)(!!   ",
"        559!!   ",
"         550!   ",
"          55a   ",
"                "};
