/* XPM */
static char * InsertField_xpm[] = {
"24 24 18 1",
" 	c None",
".	c #004040",
"+	c #FF5D00",
"@	c #58A8FF",
"#	c #000000",
"$	c #FCFCFC",
"%	c #F0F0E3",
"&	c #F7F7F1",
"*	c #F8F8F5",
"=	c #CCCC98",
"-	c #CCCC97",
";	c #E6E6DA",
">	c #9E9E91",
",	c #9D9D90",
"'	c #7E7E7C",
")	c #F5F5ED",
"!	c #E1E1D3",
"~	c #ABAB9A",
" ..............+..++..++",
" .@@@@@@@@@@@@@++@++@+++",
" ...............+++++++ ",
" .               ++++ . ",
" . #############++++++. ",
" . #$%&&&&&&&&&+++++ ++ ",
" . #*=---------+-=++  ++",
" . #;>,,,,,,,,,,,>'+  . ",
" . #################  . ",
" .                    . ",
" . #################  . ",
" . #$%&&&&&&&&&&&)!#  . ",
" . #*=-----------=~#  . ",
" . #;>,,,,,,,,,,,>'#  . ",
" . #################  . ",
" .                    . ",
" . #################  . ",
" . #$%&&&&&&&&&&&)!#  . ",
" . #*=-----------=~#  . ",
" . #;>,,,,,,,,,,,>'#  . ",
" . #################  . ",
" .                    . ",
" ...................... ",
"                        "};
